<?xml version="1.0" standalone="no"?><!DOCTYPE svg PUBLIC "-//W3C//DTD SVG 1.1//EN" "http://www.w3.org/Graphics/SVG/1.1/DTD/svg11.dtd"><svg t="1773479108377" class="icon" viewBox="0 0 1024 1024" version="1.1" xmlns="http://www.w3.org/2000/svg" p-id="6742" xmlns:xlink="http://www.w3.org/1999/xlink" width="200" height="200"><path d="M810.666667 768c46.933333 0 85.333333-38.4 85.333333-85.333333V213.333333c0-46.933333-38.4-85.333333-85.333333-85.333333H213.333333c-46.933333 0-85.333333 38.4-85.333333 85.333333v469.333334c0 46.933333 38.4 85.333333 85.333333 85.333333h170.666667v85.333333H149.333333c-12.8 0-21.333333 8.533333-21.333333 21.333334s8.533333 21.333333 21.333333 21.333333h725.333334c12.8 0 21.333333-8.533333 21.333333-21.333333s-8.533333-21.333333-21.333333-21.333334H640v-85.333333h170.666667zM213.333333 725.333333c-25.6 0-42.666667-17.066667-42.666666-42.666666V213.333333c0-25.6 17.066667-42.666667 42.666666-42.666666h597.333334c25.6 0 42.666667 17.066667 42.666666 42.666666v469.333334c0 25.6-17.066667 42.666667-42.666666 42.666666H213.333333z m554.666667-256c0 12.8-8.533333 21.333333-21.333333 21.333334h-119.466667L597.333333 379.733333l-81.066666 285.866667-89.6-234.666667-29.866667 59.733334H277.333333c-12.8 0-21.333333-8.533333-21.333333-21.333334s8.533333-21.333333 21.333333-21.333333h93.866667l59.733333-119.466667 81.066667 204.8L597.333333 213.333333l59.733334 234.666667h89.6c12.8 0 21.333333 8.533333 21.333333 21.333333z" fill="" p-id="6743"></path></svg>