<?xml version="1.0" standalone="no"?><!DOCTYPE svg PUBLIC "-//W3C//DTD SVG 1.1//EN" "http://www.w3.org/Graphics/SVG/1.1/DTD/svg11.dtd"><svg t="1757139682148" class="icon" viewBox="0 0 1024 1024" version="1.1" xmlns="http://www.w3.org/2000/svg" p-id="5703" xmlns:xlink="http://www.w3.org/1999/xlink" width="200" height="200"><path d="M433.444571 548.717714a84.992 84.992 0 0 0 118.345143 38.107429 83.821714 83.821714 0 0 0 31.451429-28.891429 84.041143 84.041143 0 0 0 13.677714-49.225143 83.382857 83.382857 0 0 0-10.093714-37.302857 85.430857 85.430857 0 0 0-69.485714-44.909714 85.942857 85.942857 0 0 0-45.860572 9.947429c-40.96 20.918857-57.636571 70.875429-38.034286 112.274285z m398.116572-37.595428c75.922286-136.484571 83.602286-274.724571 18.797714-339.602286-64.877714-64.365714-203.995429-56.758857-340.48 19.163429-136.118857-74.605714-273.92-81.92-338.358857-17.481143-64.438857 64.438857-57.197714 201.874286 17.92 337.92-75.117714 135.68-82.358857 273.554286-17.92 337.481143 20.041143 20.114286 47.323429 34.157714 78.921143 40.96 70.802286 14.994286 162.523429-5.485714 258.925714-58.441143 97.28 53.76 190.317714 75.117714 261.632 60.196571 31.085714-6.875429 58.88-20.918857 78.921143-40.96 20.041143-20.041143 34.523429-47.396571 40.96-78.482286 15.36-71.314286-5.997714-163.84-59.757714-260.754285h0.438857z m-599.04-277.284572c26.038857-26.038857 73.874286-28.598857 142.482286-8.118857 17.115429 5.12 34.157714 11.483429 51.2 18.724572-34.084571 25.234286-66.56 53.394286-97.28 84.114285-31.524571 31.158857-60.123429 64.365714-85.723429 98.962286a467.968 467.968 0 0 1-18.797714-51.638857c-20.918857-68.681143-18.285714-116.443429 8.045714-142.482286v0.438857z m142.482286 562.322286c-69.12 20.918857-116.443429 17.92-142.482286-8.045714-26.038857-26.112-28.525714-73.435429-8.045714-142.628572 5.046857-16.969143 11.483429-34.084571 18.724571-51.2a887.076571 887.076571 0 0 0 182.564571 183.076572c-17.042286 7.314286-34.084571 13.677714-51.2 18.797714h0.438858z m14.555428-163.401143a758.491429 758.491429 0 0 1-100.717714-122.002286 758.491429 758.491429 0 0 1 100.717714-122.075428c39.643429-39.643429 79.725714-72.557714 120.32-99.401143 41.325714 26.843429 82.285714 60.562286 122.441143 100.717714 39.643429 39.643429 72.923429 79.725714 99.84 120.32a784.603429 784.603429 0 0 1-99.84 120.32A779.702857 779.702857 0 0 1 509.805714 731.282286 780.873143 780.873143 0 0 1 389.558857 631.954286v0.877714z m399.725714 156.964572c-25.965714 26.038857-73.801143 28.598857-142.482285 8.118857a544.402286 544.402286 0 0 1-53.76-19.602286c34.962286-25.6 68.242286-54.125714 99.84-85.796571 31.158857-30.72 59.245714-63.561143 84.48-97.645715 7.68 17.481143 14.116571 35.401143 19.602285 53.321143 20.918857 68.681143 18.358857 116.443429-8.045714 142.482286l0.365714-0.804572z m8.118858-415.085715c-5.558857 17.92-11.922286 35.84-19.602286 53.321143a868.790857 868.790857 0 0 0-84.845714-98.157714 856.064 856.064 0 0 0-99.913143-85.723429c17.92-7.68 35.84-14.555429 53.76-20.114285 69.12-20.845714 116.516571-17.846857 142.482285 8.118857 26.038857 26.038857 28.598857 73.435429 8.118858 142.555428z" p-id="5704" fill="#1296db"></path></svg>